<svg width="45" height="45" viewBox="0 0 45 45" fill="none" xmlns="http://www.w3.org/2000/svg">
<g clip-path="url(#clip0_5757_4901)">
<path d="M20.8848 32.8299C20.5539 32.587 20.0882 32.6579 19.845 32.989L19.7531 33.1141C19.5101 33.4449 19.5809 33.9099 19.9114 34.1534C20.0442 34.2513 20.1988 34.2985 20.3521 34.2985C20.5801 34.2985 20.8051 34.194 20.9509 33.9966L21.0441 33.8698C21.2872 33.5387 21.2159 33.0731 20.8848 32.8299Z" fill="black"/>
<path d="M21.0789 39.907L19.1657 36.4281L20.952 33.9952C21.1953 33.6641 21.1239 33.1984 20.7927 32.9552C20.4616 32.712 19.9962 32.7828 19.7531 33.1141L17.6853 35.9304C17.5139 36.1638 17.4936 36.4754 17.6331 36.7292L19.7753 40.624C19.9109 40.8702 20.1653 41.0094 20.4279 41.0094C20.5491 41.0093 20.672 40.9797 20.7857 40.9172C21.1456 40.7193 21.2769 40.267 21.0789 39.907Z" fill="black"/>
<path d="M26.6235 35.9305L24.5644 33.1262C24.3936 32.8937 24.1043 32.7807 23.8212 32.8367C23.5382 32.8923 23.313 33.1067 23.243 33.3864C23.1893 33.6012 23.2341 33.8286 23.3651 34.0071L25.1427 36.4282L23.2425 39.8835C23.1822 39.9932 23.1505 40.1169 23.1505 40.2423C23.1505 40.5819 23.3804 40.8784 23.7093 40.9628C23.7709 40.9787 23.8331 40.9864 23.8944 40.9864C24.1607 40.9864 24.4131 40.8427 24.5463 40.6009L26.6756 36.7295C26.8153 36.4755 26.7948 36.1639 26.6235 35.9305Z" fill="black"/>
<path d="M27.8023 24.2398C27.5576 24.1113 27.2618 24.1288 27.0342 24.2858C26.5917 24.5906 26.1811 24.9135 25.8138 25.2455C23.8118 27.0554 21.9097 26.8104 21.8352 26.7998C21.7903 26.7927 21.7447 26.7895 21.6996 26.7909C20.9083 26.8112 19.4818 26.0882 17.9726 24.903C17.7418 24.7217 17.5051 24.549 17.2688 24.3895C17.0409 24.2355 16.7464 24.2199 16.5035 24.3491C16.2606 24.4782 16.1087 24.7308 16.1087 25.006V27.558C16.1087 27.7837 16.2114 27.997 16.3874 28.1383C16.4082 28.155 16.4299 28.1705 16.4522 28.1848L21.7272 31.7096C21.728 31.7101 21.7288 31.7108 21.7297 31.7114L21.7436 31.7207C21.8678 31.8028 22.0108 31.8443 22.1544 31.8443C22.2753 31.8443 22.3961 31.815 22.5065 31.756C22.5298 31.7435 22.5522 31.7299 22.5736 31.7153C22.5761 31.7136 22.5786 31.712 22.5812 31.7103C22.5841 31.7084 22.5871 31.7064 22.59 31.7044L27.8525 28.1879C27.8736 28.1745 27.8942 28.1601 27.9141 28.1446C28.0946 28.0037 28.2002 27.7874 28.2002 27.5583V24.8984C28.2002 24.6219 28.047 24.3684 27.8023 24.2398ZM26.7122 27.1601L22.1544 30.2058L17.5966 27.16V26.4834C18.7064 27.29 20.3389 28.2792 21.6697 28.2791C21.6724 28.2791 21.6755 28.2791 21.6783 28.2791C22.1251 28.3285 24.4036 28.4629 26.7124 26.4375L26.7122 27.1601Z" fill="black"/>
<path d="M22.8882 30.9782C22.8391 30.6832 22.618 30.4463 22.327 30.3769C22.0359 30.3078 21.7318 30.4191 21.5548 30.6603L19.845 32.989C19.6018 33.3202 19.673 33.7861 20.0043 34.0292C20.1369 34.1267 20.2911 34.1736 20.4439 34.1736C20.6727 34.1736 20.8982 34.0684 21.0441 33.8698L22.7453 31.553C22.842 31.4265 22.8984 31.2691 22.8984 31.1008C22.8983 31.0599 22.8949 31.0186 22.8882 30.9782Z" fill="black"/>
<path d="M33.4879 6.99554C33.4731 6.87901 33.1246 4.36395 30.7572 3.3718C30.826 2.93008 30.8188 2.36238 30.5383 1.81006C30.1614 1.06773 29.4176 0.583985 28.3275 0.372063C28.2808 0.362953 28.2333 0.358398 28.1856 0.358398H18.2008C14.1464 0.358398 10.8479 3.65686 10.8479 7.7114V11.6294C10.8479 12.6502 11.1958 13.6456 11.8275 14.4321C12.1406 14.8221 12.5263 15.5031 12.5845 16.5328C12.6072 16.9348 12.9437 17.2455 13.3482 17.2343C13.7508 17.223 14.0711 16.8933 14.0711 16.4907V11.3826C14.5763 9.29351 16.3003 8.88694 16.5967 8.83202H19.8264C20.2063 8.83202 20.5799 8.77402 20.937 8.65955C21.5511 8.46258 22.5254 8.10009 23.2347 7.83068C23.7092 7.6503 24.2346 7.64368 24.7139 7.81212L28.1715 9.0259C29.9001 9.66356 30.2086 11.181 30.2468 11.4194V17.55C30.2468 17.9394 30.547 18.2624 30.9353 18.2914C30.9542 18.2927 30.9728 18.2935 30.9913 18.2935C31.3562 18.2934 31.6713 18.0261 31.7265 17.6597C31.7294 17.6405 32.0264 15.7218 32.9843 14.1856C33.3176 13.6508 33.4938 13.0411 33.4938 12.4223V7.08947C33.4938 7.0581 33.4919 7.02673 33.4879 6.99554ZM32.0059 12.422C32.0059 12.7543 31.9121 13.084 31.7346 13.3771V11.3686C31.7346 11.3417 31.7331 11.3149 31.7302 11.2882C31.7185 11.1802 31.4111 8.63076 28.6796 7.62735C28.6763 7.62615 28.6729 7.62494 28.6695 7.62374L25.2067 6.40807C24.8163 6.271 24.4078 6.20259 23.9996 6.20259C23.5606 6.20259 23.1219 6.28174 22.7062 6.43986C21.7132 6.81713 20.9441 7.09479 20.4825 7.24278C20.2726 7.31007 20.0518 7.34427 19.8263 7.34427H16.5365C16.5046 7.34427 16.4727 7.34633 16.441 7.35037C16.3151 7.3667 13.3479 7.78866 12.6012 11.1355C12.5893 11.1887 12.5833 11.243 12.5833 11.2975V12.8286C12.4213 12.4542 12.3355 12.0453 12.3355 11.6295V7.71157C12.3355 4.47756 14.9667 1.84641 18.2006 1.84641H28.1105C28.5208 1.93381 29.0194 2.11316 29.2085 2.47805C29.4402 2.92467 29.1763 3.53964 29.1761 3.54015C29.0809 3.74254 29.0821 3.97689 29.1787 4.17841C29.2755 4.37994 29.4579 4.52723 29.6753 4.57957C31.5692 5.03547 31.9555 6.85193 32.0058 7.14576L32.0059 12.422Z" fill="black"/>
<path d="M31.7302 11.2882C31.7185 11.1802 31.4111 8.63076 28.6796 7.62735C28.6763 7.62615 28.6729 7.62494 28.6695 7.62374L25.2067 6.40807C24.3963 6.12361 23.5085 6.13513 22.7062 6.43986C21.7132 6.81713 20.9441 7.09479 20.4825 7.24278C20.2726 7.31007 20.0518 7.34427 19.8263 7.34427H16.5365C16.5046 7.34427 16.4727 7.34633 16.441 7.35037C16.3151 7.3667 13.3479 7.78866 12.6012 11.1355C12.5893 11.1887 12.5833 11.243 12.5833 11.2975L12.5833 17.6925C12.5833 17.698 12.5834 17.7035 12.5835 17.709C12.5884 17.9311 12.7456 23.1773 16.3704 25.5766L16.3891 25.5899C16.4047 25.6009 16.4203 25.6119 16.4365 25.6228C16.6432 25.7623 16.8507 25.9139 17.0537 26.0732C18.1097 26.9024 20.0998 28.2791 21.6697 28.2791C21.6724 28.2791 21.6755 28.2791 21.6783 28.2791C21.7636 28.2885 21.9158 28.3011 22.1222 28.3011C23.0119 28.3011 24.9101 28.068 26.8114 26.3492C27.1305 26.0609 27.4893 25.7788 27.8782 25.5109L27.9338 25.472C27.952 25.4592 27.9701 25.4463 27.9888 25.4337C29.198 24.6216 31.2921 22.5261 31.7318 17.6161C31.7337 17.5941 31.7348 17.5719 31.7348 17.5497L31.7346 11.3686C31.7346 11.3417 31.7331 11.3149 31.7302 11.2882ZM30.2468 17.5161C29.8414 21.9472 27.9534 23.665 27.1592 24.1985C27.131 24.2174 27.1032 24.237 27.0753 24.2566L27.0342 24.2858C26.5917 24.5906 26.1811 24.9135 25.8138 25.2455C23.8192 27.0487 21.9233 26.8121 21.8303 26.799C21.7871 26.7926 21.7433 26.7897 21.6996 26.7909C20.9083 26.8112 19.4818 26.0882 17.9726 24.903C17.7418 24.7217 17.5051 24.549 17.2688 24.3895L17.2508 24.3769C17.2329 24.3641 17.2151 24.3515 17.1941 24.3376C14.269 22.4015 14.0776 17.8708 14.0711 17.6817L14.0711 11.3826C14.5781 9.28586 16.3127 8.88385 16.5955 8.83194L19.8264 8.83202C20.2063 8.83202 20.5799 8.77402 20.937 8.65955C21.5511 8.46258 22.5254 8.10009 23.2347 7.83068C23.7092 7.6503 24.2346 7.64368 24.7139 7.81212L28.1715 9.0259C29.9001 9.66356 30.2086 11.181 30.2468 11.4194L30.2468 17.5161Z" fill="black"/>
<path d="M22.8197 30.7681C22.7038 30.5363 22.4755 30.3815 22.2173 30.3595C21.9594 30.3382 21.7082 30.4513 21.5548 30.6603L19.7726 33.0876C19.5296 33.4186 19.6006 33.8839 19.9314 34.1272C20.0641 34.2248 20.2185 34.272 20.3716 34.272C20.5998 34.272 20.8252 34.1672 20.971 33.9693L22.7531 31.5512C22.8474 31.4233 22.8984 31.2596 22.8984 31.1008C22.8985 30.9854 22.8713 30.8715 22.8197 30.7681Z" fill="black"/>
<path d="M22.8674 42.746C22.5879 42.4537 22.1262 42.4381 21.8278 42.7111L21.6577 42.8667C21.4031 43.0995 21.342 43.4769 21.5103 43.7782L21.5155 43.7876C21.6291 43.9912 21.8317 44.1297 22.0627 44.1618C22.0969 44.1665 22.1311 44.1688 22.1651 44.1688C22.361 44.1688 22.5506 44.0914 22.6911 43.9509L22.8559 43.786C23.1418 43.5001 23.1469 43.0381 22.8674 42.746Z" fill="black"/>
<path d="M22.651 42.8667L22.4809 42.7111C22.1825 42.4382 21.7207 42.4538 21.4412 42.7459C21.1617 43.0383 21.1668 43.5004 21.4528 43.7862L21.6178 43.9511C21.7584 44.0916 21.9479 44.169 22.1438 44.169C22.1788 44.169 22.2139 44.1666 22.2491 44.1615C22.4807 44.1284 22.6834 43.9881 22.7961 43.7829L22.8013 43.7735C22.9661 43.4727 22.9041 43.0981 22.651 42.8667Z" fill="black"/>
<path d="M22.6635 42.8783L22.6626 42.8774C22.5477 42.77 22.3991 42.6992 22.2354 42.6812C22.0162 42.6573 21.8026 42.7316 21.6473 42.8762L21.6451 42.8783C21.4947 43.0155 21.4071 43.2084 21.4027 43.4119C21.3984 43.6156 21.4776 43.8119 21.6219 43.9554L21.6297 43.9633C21.7749 44.1075 21.9645 44.1796 22.1543 44.1796C22.3447 44.1796 22.5351 44.1069 22.6802 43.9619L22.688 43.9541C22.8317 43.8103 22.9104 43.6141 22.9057 43.4109C22.9012 43.2077 22.8137 43.0153 22.6635 42.8783Z" fill="black"/>
<path d="M22.3957 30.3806C22.0876 30.282 21.7495 30.3964 21.5619 30.6602C21.352 30.9556 21.3867 31.3583 21.6423 31.6151C21.7862 31.7597 21.9772 31.8338 22.1696 31.8338C22.319 31.8338 22.4692 31.7891 22.5988 31.6978C22.7968 31.5585 22.9146 31.3316 22.9146 31.0895V31.0876C22.9146 30.7639 22.7041 30.479 22.3957 30.3806Z" fill="black"/>
<path d="M22.7588 30.6541L22.7525 30.6455C22.5616 30.3872 22.2265 30.2808 21.9215 30.3812C21.6165 30.4817 21.4104 30.7667 21.4104 31.0877V31.1005C21.4104 31.3743 21.5641 31.624 21.8055 31.7536C21.9148 31.8123 22.0354 31.8412 22.1559 31.8412C22.3012 31.8412 22.4464 31.7991 22.5712 31.7165C22.7412 31.6039 22.8577 31.4263 22.8932 31.2255C22.9287 31.0247 22.8801 30.8181 22.7588 30.6541Z" fill="black"/>
<path d="M31.0041 28.3171C30.927 28.1133 30.7645 27.9537 30.5595 27.8803L27.7071 26.8578C27.684 26.8495 27.66 26.8422 27.6362 26.8363C27.4326 26.7853 27.2169 26.8227 27.0424 26.9394L21.7574 30.471C21.756 30.4719 21.7545 30.4728 21.753 30.4739L22.168 31.0909L21.7437 30.4802C21.5887 30.5827 21.4777 30.7399 21.4327 30.9202C21.4079 31.0192 21.4039 31.1225 21.4206 31.2232C21.4398 31.3382 21.4857 31.4471 21.5548 31.5412L25.4241 36.811C25.5647 37.0027 25.7878 37.1147 26.0236 37.1147C26.0398 37.1147 26.056 37.1141 26.0723 37.113C26.3257 37.0963 26.5532 36.9521 26.6756 36.7295L30.9601 28.939C31.0652 28.7481 31.0813 28.5207 31.0041 28.3171ZM25.9336 34.9909L23.2141 31.287L27.5575 28.3846L29.2361 28.9865L25.9336 34.9909Z" fill="black"/>
<path d="M22.8873 30.9723C22.8523 30.7726 22.7374 30.5958 22.569 30.4828L17.2664 26.9395C17.0976 26.8266 16.8896 26.7879 16.6913 26.8319C16.6609 26.8386 16.631 26.8474 16.6017 26.8579L13.7493 27.8804C13.5443 27.9538 13.3818 28.1135 13.3047 28.3172C13.2276 28.5209 13.2436 28.7482 13.3486 28.9391L17.6331 36.7292C17.7555 36.9518 17.983 37.0964 18.2365 37.1131C18.2526 37.1141 18.2689 37.1146 18.285 37.1146C18.5208 37.1146 18.7438 37.0026 18.8847 36.8108L20.952 33.9952C20.9536 33.993 20.9554 33.9906 20.9571 33.9883L22.7541 31.5407C22.8741 31.3773 22.9222 31.172 22.8873 30.9723ZM19.7531 33.1141C19.7513 33.1165 19.7495 33.119 19.7477 33.1214L18.375 34.991L15.0724 28.9865L16.7511 28.3847L21.0945 31.2871L19.7531 33.1141Z" fill="black"/>
<path d="M44.1175 41.0168L43.1579 35.2218C42.8555 33.3955 41.5862 31.8697 39.8455 31.2401L30.5613 27.8811C30.275 27.7777 29.9551 27.8588 29.7528 28.0858C29.5505 28.313 29.5068 28.6404 29.6425 28.9127L31.5809 32.8L29.6789 32.8293C29.4206 32.8334 29.1829 32.9709 29.0509 33.1929C28.9189 33.415 28.9116 33.6895 29.0313 33.9183L29.8115 35.4079L21.8278 42.7111C21.8196 42.7186 21.8115 42.7265 21.8036 42.7343L21.6388 42.8992C21.4053 43.1328 21.3537 43.4923 21.5122 43.7821L21.5181 43.7927C21.6486 44.0311 21.8989 44.1796 22.1708 44.1796H41.4355C42.2358 44.1796 42.9916 43.8295 43.509 43.2192C44.0265 42.6089 44.2483 41.806 44.1175 41.0168ZM42.3745 42.257C42.14 42.5333 41.7978 42.6918 41.4356 42.6918H24.0533L31.2387 36.119C31.4879 35.8911 31.5523 35.5241 31.3956 35.2249L30.9102 34.2983L32.7859 34.2694C33.0415 34.2655 33.2771 34.1305 33.41 33.9122C33.5428 33.6936 33.5542 33.4224 33.4402 33.1936L31.8042 29.9128L39.3397 32.639C40.5751 33.0859 41.4758 34.1687 41.6904 35.4647L42.6501 41.2597C42.7092 41.6172 42.6088 41.9806 42.3745 42.257Z" fill="black"/>
<path d="M22.67 42.8842L22.6613 42.8764C22.3669 42.6098 21.9147 42.6217 21.6345 42.9034L21.6268 42.9112C21.4149 43.1243 21.3521 43.444 21.4675 43.7214C21.5829 43.9989 21.8538 44.1796 22.1543 44.1796L22.1708 44.1796C22.4783 44.1796 22.7542 43.9902 22.8647 43.7033C22.9755 43.4162 22.8981 43.0906 22.67 42.8842Z" fill="black"/>
<path d="M22.6466 42.8627C22.4777 42.7107 22.2487 42.6441 22.0244 42.6824C21.8004 42.7203 21.606 42.8587 21.4967 43.0579L21.4915 43.0673C21.3347 43.3532 21.3824 43.7079 21.6092 43.9424L21.6118 43.9451C21.7576 44.0958 21.9518 44.1717 22.1465 44.1717C22.3257 44.1717 22.5054 44.1073 22.6477 43.9773L22.6555 43.9702C22.7231 43.9087 22.7788 43.835 22.8197 43.7531C22.9695 43.4538 22.8954 43.0865 22.6466 42.8627Z" fill="black"/>
<path d="M22.6787 42.9082L22.6757 42.905C22.6737 42.903 22.6716 42.901 22.6697 42.8991L22.5047 42.7343C22.497 42.7264 22.489 42.7184 22.4809 42.7111L14.4971 35.4079L15.2773 33.9183C15.3972 33.6896 15.3897 33.415 15.2578 33.1929C15.1258 32.971 14.8881 32.8334 14.6298 32.8293L12.7276 32.8L14.666 28.9127C14.8018 28.6405 14.758 28.313 14.5557 28.0858C14.3535 27.8587 14.0332 27.7775 13.7472 27.8811L4.46314 31.2401C2.72239 31.8696 1.45309 33.3954 1.15068 35.2218L0.19101 41.0168C0.0602983 41.8064 0.282189 42.6091 0.799706 43.2193C1.31731 43.8295 2.07313 44.1796 2.87321 44.1796L22.1543 44.1796C22.4556 44.1796 22.7271 43.9978 22.8419 43.7194C22.9568 43.4409 22.8924 43.1206 22.6787 42.9082ZM2.8733 42.6918C2.51098 42.6918 2.16878 42.5333 1.93451 42.257C1.70025 41.9807 1.59987 41.6172 1.659 41.2597L2.61866 35.4647C2.83325 34.1685 3.73396 33.0859 4.96932 32.639L12.5048 29.9128L10.8689 33.1934C10.7547 33.4222 10.7661 33.6934 10.899 33.912C11.0318 34.1304 11.2675 34.2654 11.5232 34.2692L13.3989 34.2982L12.9135 35.2249C12.7568 35.5239 12.8213 35.891 13.0703 36.1189L20.2557 42.6918H2.8733Z" fill="black"/>
<path d="M24.6864 33.7466C24.7401 33.5318 24.6954 33.3047 24.5644 33.1262L22.7539 30.6604C22.5637 30.4012 22.2282 30.2981 21.9228 30.3983C21.7578 30.4524 21.622 30.5615 21.5316 30.701L19.7543 33.1125C19.7289 33.1469 19.7063 33.1838 19.6871 33.2222C19.5653 33.4658 19.5864 33.7564 19.7419 33.98L20.4988 35.0668L19.6925 40.1489C19.6666 40.3121 19.6958 40.4792 19.7753 40.624L21.5026 43.7642C21.6333 44.002 21.8832 44.1497 22.1544 44.1497C22.4257 44.1497 22.6756 44.002 22.8063 43.7642L24.5463 40.6009C24.6066 40.4911 24.6384 40.3675 24.6384 40.2422C24.6384 40.2032 24.6352 40.1638 24.6292 40.1252L23.8266 35.0669L24.5753 33.992C24.6267 33.9176 24.6646 33.8343 24.6864 33.7466ZM22.1544 41.8622L21.2018 40.1303L22.0151 35.0042C22.0453 34.8142 22.0007 34.6202 21.8909 34.4625L21.2675 33.5672L22.1566 32.3608L23.0503 33.578L22.4344 34.4625C22.3246 34.6201 22.2801 34.8142 22.3102 35.0042L23.1198 40.1069L22.1544 41.8622Z" fill="black"/>
</g>
<defs>
<clipPath id="clip0_5757_4901">
<rect width="44" height="44" fill="white" transform="translate(0.154297 0.269043)"/>
</clipPath>
</defs>
</svg>
