<svg width="46" height="46" viewBox="0 0 46 46" fill="none" xmlns="http://www.w3.org/2000/svg">
<path d="M24.6409 1.52709C23.6038 1.40811 22.3914 1.40864 21.3639 1.52656C13.7085 2.33621 7.92311 8.67729 7.90627 16.3047C7.90627 18.3243 8.31421 20.3372 9.08352 22.1367C9.07964 22.2195 9.08803 22.3025 9.12179 22.3794C9.52029 23.2851 9.99092 24.0269 10.4294 24.6759L12.662 28.1456C12.6648 28.1499 12.6689 28.1529 12.6718 28.1571C12.6746 28.1613 12.6758 28.1663 12.6789 28.1704L15.0419 31.3932C15.0461 31.3993 15.048 31.4066 15.0525 31.4126L20.1497 38.2881C17.5644 38.6559 14.9141 39.6175 14.9141 41.3279C14.9141 43.4289 19.0802 44.5623 23 44.5623C26.9198 44.5623 31.0859 43.4289 31.0859 41.3279C31.0859 39.6182 28.4414 38.6588 25.8504 38.2912L30.9469 31.4084C30.9476 31.4076 30.9478 31.4066 30.9484 31.4057C30.9487 31.4053 30.9493 31.4052 30.9496 31.4047L33.3211 28.1704C33.3238 28.1667 33.3249 28.1624 33.3274 28.1587C33.3299 28.1551 33.3334 28.1524 33.3359 28.1488L33.3379 28.1457L33.3392 28.1438L35.0068 25.6204L35.5595 24.6259C35.9854 23.9942 36.475 23.2256 36.8782 22.3086C36.9118 22.2321 36.9202 22.1495 36.9165 22.067C37.6964 20.2459 38.0937 18.3078 38.0937 16.2763C38.0769 8.67729 32.2914 2.33621 24.6409 1.52709ZM11.9219 25.036L11.3344 24.09C10.9583 23.5326 10.584 22.8386 10.2193 22.0371C10.5849 21.0065 11.5893 20.3045 12.7578 20.3045H15.6474C16.0043 20.3045 16.4902 20.3945 16.785 20.832L17.6236 22.0293C17.8936 22.437 18.3501 22.6805 18.8438 22.6805C19.2413 22.6805 19.6182 22.5268 19.9078 22.2446L20.2815 21.874C20.5258 21.6298 20.9506 21.6298 21.1933 21.8785C21.4481 22.1365 21.4481 22.5363 21.1938 22.7871L19.8609 24.0937C19.5166 24.4343 19.0497 24.6217 18.5469 24.6217C17.9542 24.6217 17.4135 24.3654 17.0635 23.9184C17.0145 23.8558 16.9524 23.8047 16.8813 23.7689L16.7734 23.7147C16.606 23.6305 16.4081 23.6394 16.248 23.7373C16.0891 23.8358 15.9922 24.0095 15.9922 24.1964V27.3123H13.4059L11.9219 25.036ZM30.0078 41.3279C30.0078 42.207 27.2777 43.4841 23 43.4841C18.7222 43.4841 15.9922 42.207 15.9922 41.3279C15.9922 40.5833 17.8322 39.6133 20.8281 39.2873C20.8355 39.3046 20.8433 39.3218 20.8516 39.3322L22.2182 41.104L22.5757 41.5772C22.6778 41.7077 22.8347 41.867 23 41.867H23.0032H23.0047C23.0139 41.867 23.0225 41.8616 23.0316 41.8606C23.1876 41.8434 23.3328 41.6969 23.428 41.5719L25.1152 39.2843C28.1458 39.6033 30.0078 40.5777 30.0078 41.3279ZM24.4177 38.3536L22.9921 40.2614L21.7208 38.6468L21.556 38.3678C21.5465 38.3515 21.536 38.3357 21.5244 38.3204L16.5565 31.6248H29.4398L24.4177 38.3536ZM30.2415 30.5467H15.7585L14.1776 28.3904H16.5313H29.4687H31.8224L30.2415 30.5467ZM34.6383 23.9947L34.0845 25.026L32.5941 27.3123H30.0078V24.1964C30.0078 24.0095 29.9109 23.8358 29.752 23.7373C29.5919 23.6389 29.3935 23.6305 29.2266 23.7147L29.1187 23.7689C29.0476 23.8047 28.9855 23.8558 28.9365 23.9184C28.5864 24.3654 28.0458 24.6217 27.453 24.6217C26.9503 24.6217 26.4834 24.4343 26.1375 24.0921L24.8077 22.7887C24.6856 22.6681 24.6182 22.5063 24.6172 22.3328C24.6167 22.1583 24.6835 21.9935 24.8083 21.8675C25.051 21.6203 25.4647 21.6024 25.73 21.8667L26.0954 22.2107C26.3718 22.48 26.7371 22.6284 27.124 22.6284C27.6289 22.6284 28.0974 22.3765 28.359 21.9798L29.2203 20.8238C29.5098 20.3945 29.9957 20.3045 30.3526 20.3045H33.2422C34.4361 20.3045 35.42 20.9638 35.7795 21.9659C35.4612 22.6536 35.0867 23.3247 34.6383 23.9947ZM36.2923 20.6815C35.6123 19.7826 34.5133 19.2264 33.2422 19.2264H30.3526C29.4782 19.2264 28.7586 19.5799 28.3411 20.2003L27.4773 21.3597C27.3983 21.479 27.2662 21.5503 27.124 21.5503C27.0503 21.5503 26.9429 21.5308 26.8413 21.4321L26.4807 21.0928C25.828 20.4408 24.683 20.4532 24.0397 21.1115C23.7149 21.4403 23.537 21.8756 23.5391 22.3378C23.5412 22.7998 23.7228 23.2322 24.0513 23.5573L25.381 24.8602C25.9285 25.4019 26.6645 25.6998 27.453 25.6998C27.9842 25.6998 28.4901 25.5661 28.9297 25.3182V27.3123H17.0703V25.3182C17.5099 25.5661 18.0158 25.6998 18.5469 25.6998C19.3355 25.6998 20.0715 25.4019 20.6174 24.8618L21.9503 23.5557C22.6241 22.8898 22.6289 21.7974 21.9624 21.1228C21.317 20.4624 20.1726 20.4582 19.5208 21.1099L19.1518 21.4755C19.0681 21.5574 18.9586 21.6024 18.8438 21.6024C18.7807 21.6024 18.6233 21.5861 18.5148 21.4224L17.6736 20.2216C17.2414 19.5799 16.5218 19.2264 15.6474 19.2264H12.7578C11.5082 19.2264 10.3956 19.8143 9.70734 20.7417C9.23503 19.3352 8.98439 17.8187 8.98439 16.2789C9.00018 9.23135 14.3708 3.35037 21.4823 2.59837C22.4383 2.48834 23.557 2.48782 24.5224 2.59889C31.6292 3.35037 36.9998 9.23135 37.0156 16.3047C37.0156 17.8133 36.7698 19.2803 36.2923 20.6815Z" fill="black"/>
<path d="M31.7534 10.8442C29.9873 10.8442 28.5506 12.2811 28.5506 14.0473C28.5506 15.7848 29.5398 17.6312 31.3728 17.6312C33.1479 17.6312 34.9567 15.8224 34.9567 14.0473C34.9567 12.2811 33.5196 10.8442 31.7534 10.8442ZM31.3728 16.5531C30.281 16.5531 29.6288 15.2791 29.6288 14.0473C29.6288 12.8757 30.5821 11.9224 31.7534 11.9224C32.9253 11.9224 33.8786 12.8757 33.8786 14.0473C33.8786 15.2183 32.5436 16.5531 31.3728 16.5531Z" fill="black"/>
<path d="M14.2466 10.8442C12.4804 10.8442 11.0432 12.2811 11.0432 14.0473C11.0432 15.8224 12.852 17.6312 14.6272 17.6312C16.4602 17.6312 17.4493 15.7848 17.4493 14.0473C17.4493 12.2811 16.0127 10.8442 14.2466 10.8442ZM14.6272 16.5531C13.4564 16.5531 12.1214 15.2183 12.1214 14.0473C12.1214 12.8757 13.0747 11.9224 14.2466 11.9224C15.4179 11.9224 16.3712 12.8757 16.3712 14.0473C16.3712 15.2791 15.719 16.5531 14.6272 16.5531Z" fill="black"/>
<path d="M27.3125 8.45373V7.07081C27.3125 5.95846 26.446 5.21094 25.1562 5.21094H20.8437C19.554 5.21094 18.6875 5.95846 18.6875 7.07081V8.45373C18.6875 9.2668 18.5575 10.0696 18.2979 10.8477C18.1684 11.2362 18.2295 11.6468 18.4653 11.9745C18.8502 12.5078 19.6309 12.6607 20.1862 12.2898L20.3363 12.1898C21.9187 11.1343 24.0813 11.1343 25.6637 12.1898L25.8137 12.2898C26.0238 12.4298 26.2644 12.5038 26.5092 12.5038C26.9124 12.5038 27.2956 12.3059 27.5346 11.9745C27.7705 11.6468 27.8315 11.2362 27.6994 10.8403C27.4425 10.0696 27.3125 9.2668 27.3125 8.45373ZM26.6597 11.3441C26.6039 11.4223 26.5028 11.4536 26.4118 11.3928L26.2617 11.2928C25.2926 10.6466 24.165 10.3052 23 10.3052C21.835 10.3052 20.7074 10.6466 19.7382 11.2928L19.5882 11.3928C19.4977 11.4531 19.3966 11.4223 19.3403 11.3441C19.2966 11.2833 19.3082 11.2262 19.3229 11.1814C19.6166 10.3004 19.7656 9.38288 19.7656 8.45373V7.07081C19.7656 6.39066 20.441 6.28906 20.8437 6.28906H25.1562C25.559 6.28906 26.2344 6.39066 26.2344 7.07081V8.45373C26.2344 9.38288 26.3833 10.3004 26.6797 11.1883C26.6918 11.2262 26.7034 11.2833 26.6597 11.3441Z" fill="black"/>
<path d="M20.461 7.76588C20.3584 7.86827 20.3047 8.00856 20.3047 8.14859C20.3047 8.28888 20.3636 8.42891 20.461 8.5313C20.5632 8.62843 20.7037 8.68765 20.8437 8.68765C20.9838 8.68765 21.1238 8.62843 21.2265 8.5313C21.3233 8.42891 21.3828 8.28888 21.3828 8.14859C21.3828 8.00856 21.3233 7.86827 21.2265 7.76588C21.0269 7.56636 20.6658 7.5611 20.461 7.76588Z" fill="black"/>
<path d="M23 8.44531C23.2977 8.44531 23.5391 8.20397 23.5391 7.90625C23.5391 7.60853 23.2977 7.36719 23 7.36719C22.7023 7.36719 22.4609 7.60853 22.4609 7.90625C22.4609 8.20397 22.7023 8.44531 23 8.44531Z" fill="black"/>
<path d="M24.7735 7.76574C24.6761 7.86813 24.6172 8.00289 24.6172 8.14845C24.6172 8.28874 24.6761 8.42877 24.7735 8.53116C24.8756 8.62829 25.0162 8.68751 25.1562 8.68751C25.2963 8.68751 25.4363 8.62829 25.5389 8.53116C25.6358 8.42877 25.6953 8.28874 25.6953 8.14845C25.6953 8.00842 25.6358 7.86813 25.5389 7.76574C25.3342 7.56622 24.973 7.57175 24.7735 7.76574Z" fill="black"/>
</svg>
