<svg width="45" height="44" viewBox="0 0 45 44" fill="none" xmlns="http://www.w3.org/2000/svg">
<g clip-path="url(#clip0_5626_4681)">
<path d="M10.6868 9.49463H9.80475C9.42505 9.49463 9.11725 9.80243 9.11725 10.1821V13.7104C9.11725 14.0901 9.42505 14.3979 9.80475 14.3979H10.6868C11.0665 14.3979 11.3743 14.0901 11.3743 13.7104V10.1821C11.3743 9.80243 11.0665 9.49463 10.6868 9.49463Z" fill="black"/>
<path d="M10.6868 15.6694H9.80475C9.42505 15.6694 9.11725 15.9772 9.11725 16.3569V18.1211C9.11725 18.5008 9.42505 18.8086 9.80475 18.8086H10.6868C11.0665 18.8086 11.3743 18.5008 11.3743 18.1211V16.3569C11.3743 15.9772 11.0665 15.6694 10.6868 15.6694Z" fill="black"/>
<path d="M30.8718 42.6251H13.4368C12.5251 42.6251 11.6507 42.2629 11.0061 41.6183C10.3614 40.9736 9.99927 40.0993 9.99927 39.1876V5.87549C9.99927 4.96381 10.3614 4.08947 11.0061 3.44481C11.6507 2.80015 12.5251 2.43799 13.4368 2.43799H30.8718C31.7834 2.43799 32.6578 2.80015 33.3024 3.44481C33.9471 4.08947 34.3093 4.96381 34.3093 5.87549V39.1876C34.3093 40.0993 33.9471 40.9736 33.3024 41.6183C32.6578 42.2629 31.7834 42.6251 30.8718 42.6251ZM13.4368 3.81299C12.8898 3.81299 12.3652 4.03029 11.9784 4.41708C11.5916 4.80387 11.3743 5.32848 11.3743 5.87549V39.1876C11.3743 39.7346 11.5916 40.2592 11.9784 40.646C12.3652 41.0328 12.8898 41.2501 13.4368 41.2501H30.8718C31.4188 41.2501 31.9434 41.0328 32.3302 40.646C32.717 40.2592 32.9343 39.7346 32.9343 39.1876V5.87549C32.9343 5.32848 32.717 4.80387 32.3302 4.41708C31.9434 4.03029 31.4188 3.81299 30.8718 3.81299H13.4368Z" fill="black"/>
<path fill-rule="evenodd" clip-rule="evenodd" d="M22.1543 35.7632C22.5032 35.7632 22.8442 35.8666 23.1344 36.0605C23.4245 36.2543 23.6506 36.5299 23.7841 36.8522C23.9176 37.1746 23.9526 37.5293 23.8845 37.8715C23.8164 38.2137 23.6484 38.528 23.4017 38.7747C23.155 39.0215 22.8406 39.1895 22.4984 39.2575C22.1562 39.3256 21.8015 39.2907 21.4792 39.1571C21.1568 39.0236 20.8813 38.7975 20.6874 38.5074C20.4936 38.2173 20.3901 37.8762 20.3901 37.5273C20.3903 37.0595 20.5762 36.6109 20.907 36.2801C21.2378 35.9493 21.6864 35.7634 22.1543 35.7632Z" fill="black"/>
<path d="M23.9184 7.34131H20.3901C20.2078 7.34131 20.0329 7.26888 19.904 7.13994C19.7751 7.01101 19.7026 6.83614 19.7026 6.65381C19.7026 6.47147 19.7751 6.2966 19.904 6.16767C20.0329 6.03874 20.2078 5.96631 20.3901 5.96631H23.9184C24.1007 5.96631 24.2756 6.03874 24.4045 6.16767C24.5335 6.2966 24.6059 6.47147 24.6059 6.65381C24.6059 6.83614 24.5335 7.01101 24.4045 7.13994C24.2756 7.26888 24.1007 7.34131 23.9184 7.34131Z" fill="black"/>
<path d="M7.15783 27.2565C7.04638 27.2563 6.93666 27.2289 6.83814 27.1768C5.99697 26.7271 5.29368 26.0574 4.80334 25.2393C4.31301 24.4211 4.05402 23.4852 4.05402 22.5314C4.05402 21.5775 4.31301 20.6416 4.80334 19.8234C5.29368 19.0053 5.99697 18.3356 6.83814 17.8859C6.91819 17.8414 7.00632 17.8134 7.09735 17.8034C7.18839 17.7934 7.2805 17.8018 7.36828 17.8279C7.45606 17.854 7.53773 17.8974 7.6085 17.9555C7.67928 18.0137 7.73772 18.0853 7.78041 18.1664C7.8231 18.2474 7.84917 18.3361 7.85709 18.4274C7.86501 18.5186 7.85462 18.6105 7.82653 18.6977C7.79844 18.7848 7.75322 18.8655 7.69352 18.935C7.63382 19.0044 7.56085 19.0612 7.47889 19.1021C6.85927 19.4352 6.34147 19.9299 5.98052 20.5337C5.61958 21.1376 5.42898 21.8279 5.42898 22.5314C5.42898 23.2348 5.61958 23.9252 5.98052 24.529C6.34147 25.1328 6.85927 25.6275 7.47889 25.9606C7.61495 26.0322 7.72309 26.1473 7.78603 26.2876C7.84898 26.4278 7.86309 26.5851 7.82612 26.7344C7.78915 26.8836 7.70323 27.0161 7.58209 27.1108C7.46094 27.2054 7.31157 27.2568 7.15783 27.2565Z" fill="black"/>
<path d="M4.66291 30.319C4.52866 30.3192 4.39734 30.2797 4.28547 30.2055C3.01584 29.3681 1.97385 28.2286 1.25289 26.8894C0.531933 25.5502 0.154541 24.053 0.154541 22.532C0.154541 21.011 0.531933 19.5138 1.25289 18.1746C1.97385 16.8354 3.01584 15.696 4.28547 14.8585C4.36083 14.807 4.44567 14.7711 4.53505 14.7528C4.62444 14.7345 4.71658 14.7341 4.8061 14.7518C4.89562 14.7694 4.98073 14.8047 5.05647 14.8556C5.13221 14.9064 5.19707 14.9719 5.24726 15.0481C5.29745 15.1243 5.33197 15.2097 5.34881 15.2994C5.36565 15.3891 5.36447 15.4812 5.34534 15.5704C5.32621 15.6596 5.28951 15.7441 5.23738 15.819C5.18525 15.8939 5.11874 15.9577 5.04172 16.0066C3.96214 16.7188 3.07614 17.6878 2.46311 18.8267C1.85009 19.9655 1.5292 21.2387 1.5292 22.532C1.5292 23.8254 1.85009 25.0985 2.46311 26.2374C3.07614 27.3762 3.96214 28.3452 5.04172 29.0574C5.16523 29.1388 5.25919 29.2579 5.30966 29.3969C5.36013 29.5359 5.36442 29.6875 5.32188 29.8292C5.27934 29.9709 5.19225 30.095 5.07354 30.1833C4.95483 30.2715 4.81082 30.3191 4.66291 30.319Z" fill="black"/>
<path d="M37.1507 27.2565C36.997 27.2568 36.8476 27.2054 36.7264 27.1108C36.6053 27.0161 36.5194 26.8836 36.4824 26.7344C36.4454 26.5851 36.4595 26.4278 36.5225 26.2876C36.5854 26.1473 36.6936 26.0322 36.8296 25.9606C37.4493 25.6275 37.9671 25.1328 38.328 24.529C38.6889 23.9252 38.8795 23.2348 38.8795 22.5314C38.8795 21.8279 38.6889 21.1376 38.328 20.5337C37.9671 19.9299 37.4493 19.4352 36.8296 19.1021C36.7477 19.0612 36.6747 19.0044 36.615 18.935C36.5553 18.8655 36.5101 18.7848 36.482 18.6977C36.4539 18.6105 36.4435 18.5186 36.4514 18.4274C36.4593 18.3361 36.4854 18.2474 36.5281 18.1664C36.5708 18.0853 36.6292 18.0137 36.7 17.9555C36.7708 17.8974 36.8525 17.854 36.9402 17.8279C37.028 17.8018 37.1201 17.7934 37.2112 17.8034C37.3022 17.8134 37.3903 17.8414 37.4704 17.8859C38.3116 18.3356 39.0148 19.0053 39.5052 19.8234C39.9955 20.6416 40.2545 21.5775 40.2545 22.5314C40.2545 23.4852 39.9955 24.4211 39.5052 25.2393C39.0148 26.0574 38.3116 26.7271 37.4704 27.1768C37.3719 27.2289 37.2621 27.2563 37.1507 27.2565Z" fill="black"/>
<path d="M39.6457 30.3186C39.4977 30.3188 39.3537 30.2712 39.235 30.1829C39.1163 30.0947 39.0292 29.9705 38.9867 29.8289C38.9441 29.6872 38.9484 29.5356 38.9989 29.3966C39.0494 29.2575 39.1433 29.1385 39.2668 29.0571C40.3464 28.3448 41.2324 27.3759 41.8455 26.237C42.4585 25.0982 42.7794 23.825 42.7794 22.5317C42.7794 21.2383 42.4585 19.9652 41.8455 18.8263C41.2324 17.6875 40.3464 16.7185 39.2668 16.0063C39.1179 15.9046 39.0149 15.7484 38.98 15.5715C38.9451 15.3945 38.9811 15.2109 39.0804 15.0603C39.1796 14.9097 39.334 14.8041 39.5103 14.7663C39.6867 14.7284 39.8708 14.7614 40.0231 14.8581C41.2927 15.6956 42.3347 16.835 43.0557 18.1743C43.7766 19.5135 44.154 21.0107 44.154 22.5317C44.154 24.0526 43.7766 25.5498 43.0557 26.8891C42.3347 28.2283 41.2927 29.3677 40.0231 30.2052C39.9112 30.2794 39.7799 30.3189 39.6457 30.3186Z" fill="black"/>
</g>
<defs>
<clipPath id="clip0_5626_4681">
<rect width="44" height="44" fill="white" transform="translate(0.154297)"/>
</clipPath>
</defs>
</svg>
