<svg width="44" height="44" viewBox="0 0 44 44" fill="none" xmlns="http://www.w3.org/2000/svg">
<path d="M41.9423 35.1617C41.6751 34.4733 41.1394 33.9233 40.4582 33.6381C39.791 33.3544 39.0372 33.3544 38.37 33.6381L33.5343 35.6913C33.5473 35.602 33.5555 35.5122 33.5589 35.422C33.5589 33.9804 32.3903 32.8118 30.9486 32.8118H25.1636C24.5786 32.8108 24.0018 32.6748 23.4781 32.4143C21.0575 31.208 18.3906 30.5782 15.6861 30.5744H15.2871C14.8752 30.5744 14.5413 30.9083 14.5413 31.3202C14.5413 31.7321 14.8752 32.066 15.2871 32.066H15.6861C18.1592 32.0691 20.598 32.645 22.8114 33.7485C23.542 34.1126 24.3472 34.3025 25.1636 34.3033H30.9486C31.5664 34.307 32.0644 34.8107 32.0608 35.4285C32.0578 35.9463 31.6998 36.3944 31.1955 36.5116C31.0978 36.5206 31.0016 36.5407 30.9024 36.5407H21.9992C21.5873 36.5407 21.2534 36.8746 21.2534 37.2865C21.2534 37.6984 21.5873 38.0323 21.9992 38.0323H30.9024H30.9397H30.9486C30.9636 38.0323 30.9777 38.0278 30.9934 38.0278C31.5852 38.0181 32.1696 37.8945 32.7147 37.6639L38.9495 35.0163C39.2468 34.8888 39.5836 34.8888 39.881 35.0163C40.1899 35.1467 40.4323 35.3974 40.5522 35.7106C40.6796 36.0304 40.6723 36.3882 40.532 36.7025C40.4006 37.0068 40.1518 37.2451 39.8422 37.3633L28.3212 41.756C25.614 42.7927 22.6137 42.7602 19.9296 41.665L13.7955 39.1152V30.5744C13.7955 30.1625 13.4616 29.8286 13.0497 29.8286H7.08343C6.67157 29.8286 6.33764 30.1625 6.33764 30.5744H2.6087C2.19684 30.5744 1.86292 30.9083 1.86292 31.3202C1.86292 31.7321 2.19684 32.066 2.6087 32.066H6.33764V35.7949C6.33764 36.2068 6.67157 36.5407 7.08343 36.5407C7.49529 36.5407 7.82922 36.2068 7.82922 35.7949V31.3202H12.3039V40.2696H7.82922V38.7781C7.82922 38.3662 7.49529 38.0323 7.08343 38.0323C6.67157 38.0323 6.33764 38.3662 6.33764 38.7781V39.5239H2.6087C2.19684 39.5239 1.86292 39.8578 1.86292 40.2696C1.86292 40.6815 2.19684 41.0154 2.6087 41.0154H6.33764C6.33764 41.4273 6.67157 41.7612 7.08343 41.7612H13.0497C13.4616 41.7612 13.7955 41.4273 13.7955 41.0154V40.7313L19.3636 43.0432C22.3992 44.2819 25.7924 44.3192 28.8545 43.1476L40.3747 38.755C41.0573 38.4958 41.6066 37.9723 41.8983 37.3029C42.2006 36.6242 42.2165 35.8523 41.9423 35.1617Z" fill="black"/>
<path d="M41.3576 5.76343C41.3576 5.75448 41.3576 5.74627 41.3576 5.73732C41.3287 5.65165 41.2841 5.57194 41.2263 5.5024C41.2091 5.48077 41.189 5.46511 41.1704 5.44572C41.1271 5.40228 41.0788 5.36424 41.0264 5.33236C40.9989 5.31633 40.9706 5.30188 40.9414 5.2891C40.9197 5.27671 40.8972 5.26552 40.8743 5.25554L24.4669 0.0350287C24.3199 -0.0116762 24.162 -0.0116762 24.015 0.0350287L7.60766 5.25554C7.29742 5.35203 7.08524 5.63832 7.08337 5.9633V23.8622C7.08365 24.1877 7.29499 24.4753 7.60543 24.5729L24.0128 29.7935C24.1598 29.8402 24.3177 29.8402 24.4647 29.7935L40.872 24.5729C41.1807 24.4738 41.3899 24.1864 41.3896 23.8622V5.9633C41.3881 5.89552 41.3773 5.82831 41.3576 5.76343ZM24.2365 1.52586L38.1827 5.9633L35.298 6.88136L21.3525 2.44318L24.2365 1.52586ZM18.8922 3.22626L32.8384 7.66369L29.9545 8.58176L16.0082 4.14432L18.8922 3.22626ZM39.898 23.3163L24.9823 28.0625V25.3538C24.9823 24.9419 24.6484 24.608 24.2365 24.608C23.8246 24.608 23.4907 24.9419 23.4907 25.3538V28.0625L8.57495 23.317V6.50847L13.5471 4.92665L27.4934 9.36484L24.2365 10.4007L11.7818 6.43911C11.3893 6.31428 10.97 6.53131 10.8451 6.92387C10.7203 7.31644 10.9373 7.73576 11.3299 7.86058L23.4907 11.729V22.3706C23.4907 22.7825 23.8246 23.1164 24.2365 23.1164C24.6484 23.1164 24.9823 22.7825 24.9823 22.3706V11.729L29.2087 10.3866V15.3341C29.2087 15.746 29.5426 16.0799 29.9545 16.0799C30.0303 16.0794 30.1058 16.0676 30.1782 16.0449L31.9181 15.49C32.3107 15.3652 32.5277 14.9458 32.4029 14.5533C32.278 14.1607 31.8587 13.9437 31.4662 14.0685L30.698 14.3131V9.91299L34.5507 8.68691V13.0871L33.7035 13.3563C33.311 13.4811 33.0939 13.9004 33.2188 14.293C33.3169 14.6019 33.6033 14.8119 33.9273 14.8128C34.0032 14.8129 34.0788 14.8011 34.151 14.7778L35.5188 14.343C35.8292 14.2454 36.0406 13.9577 36.0408 13.6322V8.20961L39.898 6.98354V23.3163Z" fill="black"/>
<path d="M10.8123 18.6416C10.4005 18.6416 10.0665 18.9755 10.0665 19.3874V21.6248C10.0665 22.0366 10.4005 22.3705 10.8123 22.3705C11.2242 22.3705 11.5581 22.0366 11.5581 21.6248V19.3874C11.5581 18.9755 11.2242 18.6416 10.8123 18.6416Z" fill="black"/>
<path d="M13.7955 19.3877C13.3836 19.3877 13.0497 19.7216 13.0497 20.1335V22.3708C13.0497 22.7827 13.3836 23.1166 13.7955 23.1166C14.2073 23.1166 14.5413 22.7827 14.5413 22.3708V20.1335C14.5413 19.7216 14.2073 19.3877 13.7955 19.3877Z" fill="black"/>
</svg>
