<svg width="80" height="80" viewBox="0 0 80 80" fill="none" xmlns="http://www.w3.org/2000/svg">
<rect width="80" height="80" rx="20" fill="#FFCE24"/>
<path d="M44.5288 34.2507L42.3959 36.3919V16.083C41.7402 16.0332 41.0762 16 40.404 16C39.7317 16 38.9266 16 38.1963 16.0996V46.5339L50.4713 34.2507H44.5288Z" fill="#D24A45"/>
<path d="M46.6038 16.7891V20.9886C51.2313 22.4652 55.1801 25.5444 57.74 29.6726C60.2998 33.8007 61.3027 38.7068 60.5681 43.5084C59.8336 48.3099 57.4099 52.6918 53.733 55.8658C50.056 59.0399 45.3672 60.7978 40.5099 60.8234C35.6526 60.849 30.9455 59.1405 27.2354 56.0054C23.5252 52.8702 21.0555 48.5141 20.2705 43.7206C19.4854 38.927 20.4365 34.0107 22.9527 29.8558C25.4689 25.7009 29.3851 22.5802 33.9968 21.055V16.8471C28.2818 18.4031 23.3275 21.9841 20.0574 26.9225C16.7873 31.861 15.4244 37.8201 16.2228 43.6891C17.0213 49.5581 19.9265 54.9365 24.3971 58.8219C28.8676 62.7074 34.5985 64.8347 40.5215 64.8074C46.4444 64.7801 52.1554 62.6001 56.59 58.6736C61.0245 54.7471 63.8801 49.3421 64.6244 43.466C65.3687 37.5899 63.951 31.6437 60.6355 26.7356C57.32 21.8274 52.3329 18.2923 46.6038 16.7891Z" fill="#000705"/>
</svg>
